<svg width="640" height="480" xmlns="http://www.w3.org/2000/svg" xmlns:svg="http://www.w3.org/2000/svg">
 <!-- Created with SVG-edit - https://github.com/SVG-Edit/svgedit-->
 <g class="layer">
  <title>Layer 1</title>
  <path d="m272.48,229.14c-1.22,-3.72 -23.38,0.93 -11.79,-3.88c4.49,-1.04 13.71,0.26 4.54,-2.54c10.44,3.52 15.07,-8.82 15.74,-17.14c-9.72,-3.03 -11.4,-14.34 -21.64,-17.38c-7.8,-6.12 -19.24,-5.93 -24.2,-15.36c-4.7,-8.4 -2.05,-18.62 -1.27,-27.69c1.85,-9.58 5.61,-19.27 4.87,-29c-7.58,4.37 -10.36,-5.39 -10.53,-8.44c-5.58,1.43 -9.12,1.49 -3.05,-3.48c2.71,-3.76 4.06,-11.98 8.39,-10.75c1.14,-4.97 4.18,2.26 7.53,-2.13c2.06,1.55 6.4,3.28 1.58,6.02c8.7,4.39 15.75,11.07 19.38,19.61c3.63,8.68 10.87,18.05 22.56,15.71c10.58,1.82 22.98,-4.53 22.5,-15.19c0.21,-7.55 7.64,-25.18 17.65,-16.22c7.51,2.88 16.14,10.01 14.37,18.1c-1.03,8.34 -0.23,16.76 0.74,25.17c-6.29,4.66 -5.16,12.75 -9.55,18.85c3.64,8.58 0.13,17.85 -5.83,24.82c-5.96,6.42 -14.68,12.13 -24.34,11.29c-3.69,6.14 4.36,11.55 7.2,11.89c-7.4,-2.37 -6.36,2.18 -3.92,7.04c2.29,9.1 -4.89,-8.11 -9.52,0.13c-3.59,3.55 -17.96,4.76 -6.33,0.5c9.93,-3.68 -11.15,-5.99 -6.47,2.31c1.55,3.46 10.52,4.99 1.08,3.67c-4.17,-2.19 -6.4,5.59 -9.72,4.13l0.03,-0.04zm19.91,-16c3.63,-4.42 4.68,-17.21 -3.18,-7.89c-6.21,5.03 -8.45,13.69 3.18,7.89z" fill="#999999" id="svg_1" stroke="#000000" stroke-dasharray="null" stroke-linecap="null" stroke-linejoin="null" stroke-opacity="null"/>
  <path d="m330.67,210.73c-0.29,-0.88 -5.55,0.22 -2.8,-0.92c1.07,-0.25 3.26,0.06 1.08,-0.6c2.48,0.84 3.58,-2.1 3.74,-4.07c-2.31,-0.72 -2.71,-3.41 -5.14,-4.13c-1.85,-1.45 -4.57,-1.41 -5.75,-3.65c-1.12,-1.99 -0.49,-4.42 -0.3,-6.58c0.44,-2.27 1.33,-4.58 1.16,-6.89c-1.8,1.04 -2.46,-1.28 -2.5,-2.01c-1.33,0.34 -2.17,0.35 -0.72,-0.83c0.64,-0.89 0.96,-2.85 1.99,-2.55c0.27,-1.18 0.99,0.54 1.79,-0.51c0.49,0.37 1.52,0.78 0.38,1.43c2.07,1.04 3.74,2.63 4.6,4.66c0.86,2.06 2.58,4.29 5.36,3.73c2.51,0.43 5.46,-1.08 5.34,-3.61c0.05,-1.79 1.81,-5.98 4.19,-3.85c1.78,0.68 3.83,2.38 3.41,4.3c-0.24,1.98 -0.06,3.98 0.18,5.98c-1.49,1.11 -1.23,3.03 -2.27,4.48c0.87,2.04 0.03,4.24 -1.38,5.9c-1.42,1.53 -3.49,2.88 -5.78,2.68c-0.88,1.46 1.04,2.74 1.71,2.82c-1.76,-0.56 -1.51,0.52 -0.93,1.67c0.54,2.16 -1.16,-1.93 -2.26,0.03c-0.85,0.84 -4.27,1.13 -1.5,0.12c2.36,-0.87 -2.65,-1.42 -1.54,0.55c0.37,0.82 2.5,1.18 0.26,0.87c-0.99,-0.52 -1.52,1.33 -2.31,0.98l-0.01,0zm4.73,-3.8c0.86,-1.05 1.11,-4.09 -0.75,-1.87c-1.47,1.2 -2.01,3.25 0.75,1.87z" fill="#4c4c4c" id="svg_2" stroke="#000000" stroke-dasharray="null" stroke-linecap="null" stroke-linejoin="null" stroke-opacity="null"/>
  <line fill="none" id="svg_3" stroke="#000000" stroke-dasharray="null" stroke-linecap="null" stroke-linejoin="null" stroke-opacity="null" transform="matrix(1 0 0 1 0 0)" x1="22" x2="624" y1="306" y2="129"/>
  <line fill="none" id="svg_4" stroke="#000000" stroke-dasharray="null" stroke-linecap="null" stroke-linejoin="null" stroke-opacity="null" transform="matrix(1 0 0 1 0 0)" x1="5" x2="234" y1="219" y2="154"/>
  <line fill="none" id="svg_5" stroke="#000000" stroke-dasharray="null" stroke-linecap="null" stroke-linejoin="null" stroke-opacity="null" x1="343" x2="641" y1="120" y2="18"/>
  <ellipse cx="29" cy="20" fill="none" fill-opacity="null" id="svg_6" rx="18" ry="16" stroke="#ffff00" stroke-dasharray="null" stroke-linecap="null" stroke-linejoin="null"/>
  <ellipse cx="39" cy="31" fill="#ffff00" id="svg_7" rx="51" ry="44" stroke="#ffff00" stroke-dasharray="null" stroke-linecap="null" stroke-linejoin="null"/>
  <ellipse cx="19" cy="7" fill="#ffff00" id="svg_8" rx="23" ry="14" stroke="#ffff00" stroke-dasharray="null" stroke-linecap="null" stroke-linejoin="null" stroke-opacity="null" transform="matrix(1 0 0 1 0 0)"/>
  <path d="m87.46,188.42c-2.74,-2.31 -0.5,-6.4 -0.34,-9.4c1.18,-3.21 1.13,-24.47 -3.12,-24.55c-4.52,-1.37 -9.65,0.52 -13.8,-2.17c-2.81,-1.66 -3.68,-5.05 -3.6,-8.1c0.06,-3.16 -3.13,-4.49 -4.15,-7.13c-1.39,-3.3 -0.19,-7.07 2.19,-9.59c2.25,-2.56 0.27,-5.92 1.42,-8.73c1.64,-3.81 6.53,-2.13 9.16,-4.75c2.82,-1.99 5.23,-5.44 9.15,-4.93c3.78,0.24 8,0.92 11.2,-1.65c2.98,-2.49 7.15,-3.83 10.9,-2.29c3.55,1.1 7.59,3.39 7.6,7.6c-1.08,4.32 3.01,4.27 5.95,4.86c3.49,1.57 7.08,4.01 8.52,7.68c0.38,4.2 -4.37,7.68 -2.21,11.96c0.85,4.18 -2.79,6.49 -5.4,8.76c-1.07,4.09 -5.15,7.41 -9.52,6.44c-3.53,-0.58 -5.7,3.28 -9.29,2.94c-2.38,2.45 -0.76,23.49 -0.32,26.4c1.79,3.59 -0.71,7.56 -4.75,7.44c-3.17,0.38 -6.61,0.56 -9.59,-0.78l0,-0.01z" fill="#00bf5f" id="svg_9" stroke="#000000" stroke-dasharray="null" stroke-linecap="null" stroke-linejoin="null"/>
  <path d="m134.26,285.38c-4.07,-2.73 -0.74,-7.52 -0.5,-11.06c1.76,-3.77 1.68,-28.79 -4.62,-28.88c-6.69,-1.61 -14.32,0.62 -20.47,-2.55c-4.16,-1.95 -5.45,-5.94 -5.34,-9.52c0.08,-3.71 -4.64,-5.27 -6.15,-8.39c-2.06,-3.88 -0.29,-8.32 3.24,-11.29c3.33,-3.01 0.41,-6.96 2.12,-10.26c2.43,-4.49 9.69,-2.5 13.6,-5.6c4.19,-2.35 7.76,-6.4 13.57,-5.8c5.6,0.29 11.86,1.08 16.6,-1.94c4.43,-2.93 10.61,-4.5 16.16,-2.7c5.27,1.29 11.25,3.99 11.27,8.94c-1.61,5.08 4.47,5.02 8.82,5.71c5.16,1.85 10.49,4.71 12.64,9.04c0.57,4.94 -6.48,9.04 -3.29,14.07c1.26,4.92 -4.13,7.64 -8,10.31c-1.59,4.81 -7.64,8.71 -14.12,7.57c-5.22,-0.68 -8.45,3.86 -13.78,3.45c-3.53,2.88 -1.13,27.64 -0.47,31.06c2.66,4.23 -1.05,8.89 -7.04,8.75c-4.7,0.45 -9.81,0.65 -14.21,-0.92l-0.03,0z" fill="#00bf5f" id="svg_10" stroke="#000000" stroke-dasharray="null" stroke-linecap="null" stroke-linejoin="null"/>
  <path d="m200.1,297.97c-0.08,-0.07 -0.01,-0.19 -0.01,-0.28c0.04,-0.1 0.03,-0.73 -0.09,-0.74c-0.14,-0.04 -0.29,0.02 -0.41,-0.06c-0.08,-0.05 -0.11,-0.15 -0.11,-0.24c0,-0.09 -0.09,-0.13 -0.12,-0.21c-0.04,-0.1 -0.01,-0.21 0.07,-0.29c0.07,-0.08 0.01,-0.18 0.04,-0.26c0.05,-0.11 0.2,-0.06 0.27,-0.14c0.08,-0.06 0.16,-0.16 0.27,-0.15c0.11,0.01 0.24,0.03 0.34,-0.05c0.09,-0.07 0.21,-0.11 0.33,-0.07c0.11,0.03 0.23,0.1 0.23,0.23c-0.03,0.13 0.09,0.13 0.18,0.15c0.1,0.05 0.21,0.12 0.26,0.23c0.01,0.13 -0.13,0.23 -0.07,0.36c0.03,0.13 -0.08,0.19 -0.16,0.26c-0.03,0.12 -0.15,0.22 -0.29,0.19c-0.11,-0.02 -0.17,0.1 -0.28,0.09c-0.07,0.07 -0.02,0.7 -0.01,0.79c0.05,0.11 -0.02,0.23 -0.14,0.22c-0.09,0.01 -0.2,0.02 -0.29,-0.02l-0.01,-0.01z" fill="#00bf5f" id="svg_11" stroke="#000000" stroke-dasharray="null" stroke-linecap="null" stroke-linejoin="null" transform="matrix(1 0 0 1 0 0)"/>
  <path d="m422.1,205.04c-3.7,-3.12 -0.67,-8.63 -0.46,-12.68c1.6,-4.33 1.52,-33.01 -4.21,-33.12c-6.09,-1.85 -13.03,0.71 -18.62,-2.92c-3.79,-2.24 -4.96,-6.82 -4.86,-10.93c0.07,-4.26 -4.22,-6.06 -5.6,-9.63c-1.87,-4.45 -0.26,-9.55 2.95,-12.94c3.03,-3.46 0.37,-7.99 1.92,-11.78c2.21,-5.15 8.82,-2.87 12.37,-6.41c3.81,-2.69 7.06,-7.35 12.34,-6.65c5.1,0.32 10.79,1.24 15.11,-2.23c4.02,-3.36 9.65,-5.16 14.7,-3.09c4.79,1.48 10.24,4.57 10.26,10.25c-1.46,5.83 4.06,5.76 8.03,6.56c4.7,2.12 9.55,5.41 11.5,10.37c0.52,5.66 -5.9,10.36 -2.99,16.14c1.14,5.64 -3.76,8.76 -7.28,11.82c-1.45,5.51 -6.94,10 -12.85,8.69c-4.76,-0.78 -7.69,4.42 -12.54,3.97c-3.22,3.31 -1.02,31.7 -0.43,35.62c2.42,4.84 -0.95,10.2 -6.41,10.04c-4.27,0.51 -8.92,0.75 -12.93,-1.05z" fill="#00bf5f" fill-opacity="null" id="svg_12" stroke="#000000" stroke-dasharray="null" stroke-linecap="null" stroke-linejoin="null" stroke-opacity="null"/>
  <path d="m392.44,92.16c-2.65,-1.99 -0.48,-5.5 -0.33,-8.07c1.15,-2.75 1.09,-21.01 -3.02,-21.08c-4.37,-1.18 -9.35,0.45 -13.36,-1.86c-2.72,-1.43 -3.56,-4.34 -3.49,-6.96c0.05,-2.71 -3.03,-3.85 -4.02,-6.13c-1.34,-2.84 -0.18,-6.08 2.12,-8.24c2.17,-2.2 0.27,-5.09 1.38,-7.49c1.59,-3.28 6.33,-1.83 8.87,-4.08c2.73,-1.71 5.07,-4.68 8.85,-4.24c3.66,0.21 7.74,0.79 10.84,-1.42c2.89,-2.14 6.92,-3.29 10.55,-1.97c3.44,0.94 7.35,2.91 7.36,6.52c-1.05,3.71 2.91,3.66 5.76,4.17c3.37,1.35 6.85,3.44 8.25,6.6c0.37,3.61 -4.23,6.6 -2.14,10.28c0.82,3.59 -2.7,5.58 -5.22,7.52c-1.04,3.51 -4.98,6.36 -9.22,5.53c-3.41,-0.5 -5.52,2.81 -9,2.52c-2.31,2.11 -0.73,20.18 -0.31,22.67c1.74,3.08 -0.68,6.49 -4.6,6.39c-3.06,0.33 -6.4,0.48 -9.28,-0.67z" fill="#00bf5f" fill-opacity="null" id="svg_13" stroke="#000000" stroke-dasharray="null" stroke-linecap="null" stroke-linejoin="null" stroke-opacity="null"/>
  <path d="m390.97,17.45c-0.08,-0.07 -0.01,-0.19 -0.01,-0.28c0.04,-0.1 0.03,-0.73 -0.09,-0.74c-0.14,-0.04 -0.29,0.02 -0.41,-0.06c-0.08,-0.05 -0.11,-0.15 -0.11,-0.24c0,-0.09 -0.09,-0.13 -0.12,-0.21c-0.04,-0.1 -0.01,-0.21 0.07,-0.29c0.07,-0.08 0.01,-0.18 0.04,-0.26c0.05,-0.11 0.2,-0.06 0.27,-0.14c0.08,-0.06 0.16,-0.16 0.27,-0.15c0.11,0.01 0.24,0.03 0.34,-0.05c0.09,-0.07 0.21,-0.11 0.33,-0.07c0.11,0.03 0.23,0.1 0.23,0.23c-0.03,0.13 0.09,0.13 0.18,0.15c0.1,0.05 0.21,0.12 0.26,0.23c0.01,0.13 -0.13,0.23 -0.07,0.36c0.03,0.13 -0.08,0.19 -0.16,0.26c-0.03,0.12 -0.15,0.22 -0.29,0.19c-0.11,-0.02 -0.17,0.1 -0.28,0.09c-0.07,0.07 -0.02,0.7 -0.01,0.79c0.05,0.11 -0.02,0.23 -0.14,0.22c-0.09,0.01 -0.2,0.02 -0.29,-0.02z" fill="#00bf5f" fill-opacity="null" id="svg_14" stroke="#000000" stroke-dasharray="null" stroke-linecap="null" stroke-linejoin="null" stroke-opacity="null"/>
  <path d="m513.6,474.94c-5.07,-0.56 -0.12,-9.26 -2.03,-13.29c-0.02,-5.93 -2.03,-11.77 -1.37,-17.67c3.99,-10.4 0.67,-21.76 -0.21,-32.48c-0.4,-2.37 -0.38,-8.44 -1.37,-3.04c-2.72,9.11 -0.06,20.37 -2.39,29.59c-3.9,5.14 -6.84,-3.01 -3.12,-6.14c4.34,-7.5 3.29,-17.61 3.44,-26.96c-0.19,-5.91 1.98,-13.34 8.38,-13.51c5.48,-0.45 10.66,2.41 16.19,2.05c16.11,0.28 32.38,0.43 48.29,-2.79c7.94,-2.01 15.85,1.54 23.8,0.1c4.47,0.53 6.83,-1.76 4.86,-6.07c3.33,-2.52 5.89,4.78 7.37,-1.72c5.36,-4.05 6.11,7.91 12.05,4.53c7.16,1.02 -3.11,8.05 2.88,11.56c3.63,3.07 9.18,10.67 1.96,12.86c-6.2,-0.48 -12.42,-0.03 -18.62,0.3c-2.87,5.26 -8.84,9.21 -8.19,16.1c-0.5,8.22 -5.75,16.33 -12.93,18.89c-3.07,-0.67 -4.41,0.42 -4.03,3.87c-1.59,4.51 -1.87,9.27 -1.68,14.07c-0.47,2.65 0.53,4.7 1.95,6.74c-1.67,3.17 -11.24,1.29 -7.61,-4.71c0.93,-7.88 -0.16,-15.78 -0.98,-23.61c-3.81,-2.98 -8.43,-1.89 -12.29,0.5c-8.51,3.43 -18.36,6.67 -27.1,2.27c-4.87,-1.49 -12.21,-2.6 -15.83,1.9c-1.63,6.79 -1.19,14.09 -2.58,20.98c-0.02,3.6 3.1,6.7 -2.19,5.69c-2.21,0.06 -4.43,0.13 -6.64,-0.03zm4.52,-7.67c0.87,-3.23 -1.26,-11.43 -1.44,-3.78c-0.72,2.43 0.2,14.09 1.28,6.35c0.07,-0.85 0.12,-1.71 0.16,-2.57z" fill="#7f7f00" id="svg_15" stroke="#000000" stroke-dasharray="null" stroke-linecap="null" stroke-linejoin="null" stroke-opacity="null"/>
  <path d="m532.14,341.39c-4.43,-0.45 -0.1,-7.37 -1.77,-10.58c-0.02,-4.72 -1.77,-9.37 -1.2,-14.06c3.49,-8.28 0.58,-17.32 -0.18,-25.84c-0.35,-1.88 -0.34,-6.72 -1.19,-2.42c-2.38,7.25 -0.06,16.21 -2.09,23.55c-3.4,4.09 -5.97,-2.4 -2.72,-4.88c3.79,-5.97 2.88,-14.01 3,-21.45c-0.16,-4.71 1.72,-10.62 7.31,-10.75c4.78,-0.36 9.31,1.92 14.13,1.63c14.07,0.22 28.27,0.34 42.16,-2.22c6.93,-1.6 13.83,1.22 20.78,0.08c3.9,0.42 5.97,-1.4 4.25,-4.83c2.91,-2 5.14,3.8 6.43,-1.37c4.68,-3.23 5.33,6.3 10.52,3.61c6.25,0.81 -2.72,6.4 2.52,9.2c3.16,2.44 8.01,8.49 1.72,10.23c-5.41,-0.38 -10.84,-0.03 -16.25,0.24c-2.51,4.19 -7.72,7.33 -7.15,12.81c-0.43,6.54 -5.02,13 -11.29,15.03c-2.68,-0.53 -3.85,0.34 -3.52,3.08c-1.39,3.59 -1.63,7.37 -1.47,11.19c-0.41,2.1 0.46,3.74 1.7,5.36c-1.46,2.53 -9.81,1.03 -6.64,-3.75c0.81,-6.27 -0.14,-12.56 -0.85,-18.79c-3.33,-2.37 -7.36,-1.5 -10.73,0.4c-7.43,2.73 -16.03,5.31 -23.65,1.81c-4.25,-1.19 -10.66,-2.07 -13.82,1.51c-1.42,5.41 -1.04,11.21 -2.25,16.7c-0.02,2.87 2.71,5.33 -1.91,4.53c-1.93,0.04 -3.87,0.11 -5.8,-0.02zm3.94,-6.1c0.76,-2.57 -1.1,-9.1 -1.26,-3.01c-0.63,1.93 0.17,11.21 1.12,5.05c0.06,-0.68 0.1,-1.36 0.14,-2.04z" fill="#7f7f00" id="svg_16" stroke="#000000" stroke-dasharray="null" stroke-linecap="null" stroke-linejoin="null" stroke-opacity="null"/>
  <path d="m550.42,370.36c-0.08,-0.01 0,-0.13 -0.03,-0.18c0,-0.08 -0.03,-0.16 -0.02,-0.24c0.06,-0.14 0.01,-0.3 0,-0.44c-0.01,-0.03 -0.01,-0.11 -0.02,-0.04c-0.04,0.12 0,0.28 -0.04,0.4c-0.06,0.07 -0.1,-0.04 -0.05,-0.08c0.06,-0.1 0.05,-0.24 0.05,-0.37c0,-0.08 0.03,-0.18 0.12,-0.18c0.08,-0.01 0.16,0.03 0.24,0.03c0.24,0 0.48,0.01 0.72,-0.04c0.12,-0.03 0.24,0.02 0.35,0c0.07,0.01 0.1,-0.02 0.07,-0.08c0.05,-0.03 0.09,0.06 0.11,-0.02c0.08,-0.05 0.09,0.11 0.18,0.06c0.11,0.01 -0.05,0.11 0.04,0.16c0.05,0.04 0.14,0.14 0.03,0.17c-0.09,-0.01 -0.18,0 -0.28,0c-0.04,0.07 -0.13,0.12 -0.12,0.22c-0.01,0.11 -0.09,0.22 -0.19,0.26c-0.05,-0.01 -0.07,0.01 -0.06,0.05c-0.02,0.06 -0.03,0.13 -0.02,0.19c-0.01,0.04 0.01,0.06 0.03,0.09c-0.02,0.04 -0.17,0.02 -0.11,-0.06c0.01,-0.11 0,-0.21 -0.01,-0.32c-0.06,-0.04 -0.13,-0.03 -0.18,0.01c-0.13,0.05 -0.27,0.09 -0.4,0.03c-0.07,-0.02 -0.18,-0.04 -0.24,0.03c-0.02,0.09 -0.02,0.19 -0.04,0.28c0,0.05 0.05,0.09 -0.03,0.08c-0.03,0 -0.07,0 -0.1,0zm0.07,-0.1c0.01,-0.04 -0.02,-0.15 -0.02,-0.05c-0.01,0.03 0,0.19 0.02,0.09c0,-0.01 0,-0.02 0,-0.03z" fill="#7f7f00" id="svg_17" stroke="#000000" stroke-dasharray="null" stroke-linecap="null" stroke-linejoin="null" stroke-opacity="null"/>
 </g>
</svg>